<?xml version="1.0" encoding="UTF-8" standalone="no"?>
<svg width="232px" height="232px" viewBox="0 0 232 232" version="1.1" xmlns="http://www.w3.org/2000/svg" xmlns:xlink="http://www.w3.org/1999/xlink" xmlns:sketch="http://www.bohemiancoding.com/sketch/ns">
    <!-- Generator: Sketch 3.0.4 (8053) - http://www.bohemiancoding.com/sketch -->
    <title>mins left chart 6</title>
    <desc>Created with Sketch.</desc>
    <defs></defs>
    <g id="Page-1" stroke="none" stroke-width="1" fill="none" fill-rule="evenodd" sketch:type="MSPage">
        <g id="Landscape-3" sketch:type="MSArtboardGroup" transform="translate(-104.000000, -658.000000)">
            <g id="mins-left-chart-6-+-Group-2-+-Oval-80-+-phone-icon-2" sketch:type="MSLayerGroup" transform="translate(104.000000, 598.000000)">
                <g id="mins-left-chart-6">
                    <path d="M116,292 C180.065031,292 232,240.065031 232,176 C232,111.934969 180.065031,60 116,60 C51.934969,60 0,111.934969 0,176 C0,240.065031 51.934969,292 116,292 L116,292 Z M116,276 C171.228475,276 216,231.228475 216,176 C216,120.771525 171.228475,76 116,76 C60.771525,76 16,120.771525 16,176 C16,231.228475 60.771525,276 116,276 L116,276 Z" id="grey-circle" fill="#F86033" sketch:type="MSShapeGroup"></path>
                    <g id="Oval-2"></g>
                    <path d="M117.695313,60.0121362 C117.131174,60.0040546 116.56606,60 116,60 C51.934969,60 0,111.934969 0,176 C0,218.373243 22.7196273,255.440033 56.641637,275.683124 L65.017194,262.045755 C35.6699473,244.619765 16,212.606963 16,176 C16,120.771525 60.771525,76 116,76 C116.566216,76 117.131332,76.0047059 117.695313,76.0140806 L117.695313,60.0121362 Z" id="Oval-2" fill="#EAEAEA" sketch:type="MSShapeGroup"></path>
                </g>
            </g>
        </g>
    </g>
</svg>