<?xml version="1.0" encoding="UTF-8" standalone="no"?>
<svg width="54px" height="30px" viewBox="0 0 54 30" version="1.1" xmlns="http://www.w3.org/2000/svg" xmlns:xlink="http://www.w3.org/1999/xlink" xmlns:sketch="http://www.bohemiancoding.com/sketch/ns">
    <!-- Generator: Sketch 3.0.4 (8053) - http://www.bohemiancoding.com/sketch -->
    <title>icon_2183 3</title>
    <desc>Created with Sketch.</desc>
    <defs></defs>
    <g id="Page-1" stroke="none" stroke-width="1" fill="none" fill-rule="evenodd" sketch:type="MSPage">
        <g id="Landscape-3" sketch:type="MSArtboardGroup" transform="translate(-799.000000, -686.000000)" fill="#5E5E5E">
            <g id="Group-7-+-gigabytes-+-icon_2183-3" sketch:type="MSLayerGroup" transform="translate(708.000000, 581.000000)">
                <g id="icon_2183-3" transform="translate(91.000000, 105.000000)" sketch:type="MSShapeGroup">
                    <path d="M25.1427,0 C18.0752,0 12.2749,5.503419 11.9328,12.4128925 C8.68725,12.795422 5.89325,14.9268133 4.68985,17.902708 C1.9932,18.5692779 0,20.9825331 0,23.8544973 C0,27.2390401 2.7907,30 6.2117,30 L27.5,30 L19.29895,21.8868917 L19.2742,16.5184191 L25.48645,22.6644659 L25.48645,10.5666298 L29.46405,10.5666298 L29.46405,22.7123501 L35.72525,16.517875 L35.72525,21.8863476 L27.5,30 L42.8703,30 C49.555,30 55,24.6130267 55,18.0001088 C55,11.387191 49.555,6.02415976 42.8703,6.02415976 C40.81825,6.02415976 38.83715,6.52966463 37.0755,7.48190739 C34.9305,3.00908712 30.32205,0 25.1427,0 L25.1427,0 Z" id="Shape"></path>
                </g>
            </g>
        </g>
    </g>
</svg>