<?xml version="1.0" encoding="UTF-8" standalone="no"?>
<svg width="10px" height="10px" viewBox="0 0 10 10" version="1.1" xmlns="http://www.w3.org/2000/svg" xmlns:xlink="http://www.w3.org/1999/xlink" xmlns:sketch="http://www.bohemiancoding.com/sketch/ns">
    <!-- Generator: Sketch 3.0.4 (8053) - http://www.bohemiancoding.com/sketch -->
    <title>Shape 5</title>
    <desc>Created with Sketch.</desc>
    <defs></defs>
    <g id="Page-1" stroke="none" stroke-width="1" fill="none" fill-rule="evenodd" sketch:type="MSPage">
        <g id="Landscape-2" sketch:type="MSArtboardGroup" transform="translate(-133.000000, -1240.000000)" fill="#767676">
            <g id="Shape-5" sketch:type="MSLayerGroup" transform="translate(133.000000, 1240.000000)">
                <path d="M8.72370348,9.17379235 L8.08355281,9.81403999 C7.9692092,9.92781609 7.63440236,9.99973029 7.62438645,9.99973029 C5.59785254,10.0168222 3.64678692,9.22095538 2.21294599,7.78659542 C0.774993067,6.34872653 -0.0216585803,4.38968723 0.000448102104,2.3569604 C0.000448102104,2.3557719 0.0738415332,2.03034695 0.187902206,1.91715567 L0.828052878,1.27632321 C1.06294581,1.04167767 1.51269985,0.935560843 1.8277578,1.04050803 L1.96273683,1.08589773 C2.27779477,1.19084492 2.60699949,1.53866287 2.69423789,1.85878669 L3.01667102,3.04199406 C3.10421122,3.3627027 2.98660443,3.8190145 2.75201329,4.05364117 L2.32406414,4.48165515 C2.74375158,6.03745049 3.96361793,7.25719978 5.51829112,7.67753562 L5.94624027,7.24952164 C6.18085027,7.0148761 6.63826243,6.8975722 6.9589225,6.98482382 L8.14195067,7.30789061 C8.46144127,7.3945574 8.80920654,7.72351014 8.91472257,8.03891766 L8.95952067,8.17391713 C9.06441423,8.48934351 8.95831348,8.93914681 8.72370348,9.17379235 L8.72370348,9.17379235 L8.72370348,9.17379235 Z M6,2.78794643 L7.21205357,4 L9.17744643,2.03458929 L10,2.85714286 L10,0 L7.14285714,0 L7.96541071,0.822553571 L6,2.78794643 L6,2.78794643 Z" sketch:type="MSShapeGroup"></path>
            </g>
        </g>
    </g>
</svg>