<?xml version="1.0" encoding="UTF-8" standalone="no"?>
<svg width="35px" height="39px" viewBox="0 0 35 39" version="1.1" xmlns="http://www.w3.org/2000/svg" xmlns:xlink="http://www.w3.org/1999/xlink" xmlns:sketch="http://www.bohemiancoding.com/sketch/ns">
    <!-- Generator: Sketch 3.0.4 (8053) - http://www.bohemiancoding.com/sketch -->
    <title>phone icon 2</title>
    <desc>Created with Sketch.</desc>
    <defs></defs>
    <g id="Page-1" stroke="none" stroke-width="1" fill="none" fill-rule="evenodd" sketch:type="MSPage">
        <g id="Landscape-3" sketch:type="MSArtboardGroup" transform="translate(-204.000000, -694.000000)" fill="#5E5E5E">
            <g id="mins-left-chart-6-+-Group-2-+-Oval-80-+-phone-icon-2" sketch:type="MSLayerGroup" transform="translate(104.000000, 598.000000)">
                <g id="phone-icon-2" transform="translate(100.000000, 96.000000)" sketch:type="MSShapeGroup">
                    <path d="M34.2347386,30.3802413 L34.0240732,29.9465496 C33.4342102,28.5153671 26.1873221,26.3469088 25.5974592,26.3035396 L25.1339954,26.3469088 C24.2492009,26.5203855 23.2801403,27.3443996 21.3841521,29.0357971 C21.0049545,29.3827505 20.4993577,29.4694888 20.0358939,29.2092738 C17.5500427,27.7780913 14.5164617,24.9157263 12.9996712,23.1809596 C11.3564814,21.3160854 9.37622712,18.2368746 8.44929958,15.7648321 C8.2807673,15.2877712 8.44929958,14.7673412 8.78636414,14.4203879 C10.9351507,12.4254062 11.8620783,11.4712846 11.9463444,10.4304246 C11.9884775,9.82325622 10.7244854,2.14691368 9.41836019,1.40963784 L9.03916256,1.14942284 C8.19650116,0.58562367 6.93250905,-0.2383905 5.54211773,0.065193668 C5.20505317,0.151932002 4.86798861,0.282039502 4.57305712,0.45551617 C3.64612957,1.06268451 1.32881071,2.71071285 0.275483956,4.83580202 C-0.356512098,6.1802462 -0.651443589,18.3669821 8.19650116,28.6454746 C16.9601798,38.8372289 27.7883788,39.2709205 29.3894355,38.9239672 L29.4315685,38.9239672 L29.5579678,38.880598 C31.7488874,38.0565839 33.6027425,35.9314947 34.3190047,35.0207422 C35.6251299,33.416083 34.7403354,31.4644705 34.2347386,30.3802413 L34.2347386,30.3802413 Z" id="Phone"></path>
                </g>
            </g>
        </g>
    </g>
</svg>