<?xml version="1.0" encoding="UTF-8" standalone="no"?>
<svg width="126px" height="82px" viewBox="0 0 126 82" version="1.1" xmlns="http://www.w3.org/2000/svg" xmlns:xlink="http://www.w3.org/1999/xlink" xmlns:sketch="http://www.bohemiancoding.com/sketch/ns">
    <!-- Generator: Sketch 3.0.4 (8053) - http://www.bohemiancoding.com/sketch -->
    <title>phone</title>
    <desc>Created with Sketch.</desc>
    <defs></defs>
    <g id="Page-1" stroke="none" stroke-width="1" fill="none" fill-rule="evenodd" sketch:type="MSPage">
        <g id="Landscape-2" sketch:type="MSArtboardGroup" transform="translate(-124.000000, -232.000000)" fill="#838383">
            <g id="phone" sketch:type="MSLayerGroup" transform="translate(125.000000, 233.000000)">
                <path d="M75.375,-0.312 L48.623,-0.312 C43.212,-0.312 38.829,4.151 38.829,9.655 L38.829,70.344 C38.829,75.848 43.213,80.311 48.623,80.311 L75.375,80.311 C80.787,80.311 85.172,75.848 85.172,70.344 L85.172,9.656 C85.172,4.152 80.787,-0.312 75.375,-0.312 L75.375,-0.312 L75.375,-0.312 Z M62.003,75.042 C59.366,75.042 57.231,72.909 57.231,70.276 C57.231,67.643 59.366,65.511 62.003,65.511 C64.634,65.511 66.767,67.643 66.767,70.276 C66.767,72.909 64.635,75.042 62.003,75.042 L62.003,75.042 L62.003,75.042 Z M79.133,61.519 L44.868,61.519 L44.868,10.766 L79.133,10.766 L79.133,61.519 L79.133,61.519 L79.133,61.519 Z" sketch:type="MSShapeGroup"></path>
                <path d="M116.801875,12.5998594 L96.597086,12.5998594 C92.5103594,12.5998594 89.2000428,15.9705969 89.2000428,20.127563 L89.2000428,65.9637029 C89.2000428,70.120669 92.5111146,73.4914066 96.597086,73.4914066 L116.801875,73.4914066 C120.889357,73.4914066 124.201184,70.120669 124.201184,65.9637029 L124.201184,20.1283183 C124.201184,15.9713522 120.889357,12.5998594 116.801875,12.5998594 L116.801875,12.5998594 L116.801875,12.5998594 Z M106.702501,69.5119272 C104.710874,69.5119272 103.098388,67.9009518 103.098388,65.9123451 C103.098388,63.9237383 104.710874,62.3135181 106.702501,62.3135181 C108.689598,62.3135181 110.300573,63.9237383 110.300573,65.9123451 C110.300573,67.9009518 108.690353,69.5119272 106.702501,69.5119272 L106.702501,69.5119272 L106.702501,69.5119272 Z M119.640152,59.2985093 L93.7610745,59.2985093 L93.7610745,20.9666599 L119.640152,20.9666599 L119.640152,59.2985093 L119.640152,59.2985093 L119.640152,59.2985093 Z" sketch:type="MSShapeGroup"></path>
                <path d="M27.3177033,12.5998594 L7.11291472,12.5998594 C3.02618808,12.5998594 -0.284128472,15.9705969 -0.284128472,20.127563 L-0.284128472,65.9637029 C-0.284128472,70.120669 3.02694334,73.4914066 7.11291472,73.4914066 L27.3177033,73.4914066 C31.4051852,73.4914066 34.7170123,70.120669 34.7170123,65.9637029 L34.7170123,20.1283183 C34.7170123,15.9713522 31.4051852,12.5998594 27.3177033,12.5998594 L27.3177033,12.5998594 L27.3177033,12.5998594 Z M17.2183301,69.5119272 C15.2267022,69.5119272 13.6142163,67.9009518 13.6142163,65.9123451 C13.6142163,63.9237383 15.2267022,62.3135181 17.2183301,62.3135181 C19.2054263,62.3135181 20.8164017,63.9237383 20.8164017,65.9123451 C20.8164017,67.9009518 19.2061816,69.5119272 17.2183301,69.5119272 L17.2183301,69.5119272 L17.2183301,69.5119272 Z M30.1559807,59.2985093 L4.27690316,59.2985093 L4.27690316,20.9666599 L30.1559807,20.9666599 L30.1559807,59.2985093 L30.1559807,59.2985093 L30.1559807,59.2985093 Z" sketch:type="MSShapeGroup"></path>
            </g>
        </g>
    </g>
</svg>