<?xml version="1.0" encoding="UTF-8" standalone="no"?>
<svg width="104px" height="30px" viewBox="0 0 104 30" version="1.1" xmlns="http://www.w3.org/2000/svg" xmlns:xlink="http://www.w3.org/1999/xlink" xmlns:sketch="http://www.bohemiancoding.com/sketch/ns">
    <!-- Generator: Sketch 3.0.4 (8053) - http://www.bohemiancoding.com/sketch -->
    <title>CityCast + icon_37945</title>
    <desc>Created with Sketch.</desc>
    <defs></defs>
    <g id="Page-1" stroke="none" stroke-width="1" fill="none" fill-rule="evenodd" sketch:type="MSPage">
        <g id="Landscape-3" sketch:type="MSArtboardGroup" transform="translate(-61.000000, -13.000000)" fill="#E83F33">
            <g id="CityCast-+-icon_37945" sketch:type="MSLayerGroup" transform="translate(61.000000, 13.000000)">
                <text id="CityCast" sketch:type="MSTextLayer" font-family="Avenir Next" font-size="18" font-weight="526">
                    <tspan x="35" y="24">CityCast</tspan>
                </text>
                <g id="icon_37945" sketch:type="MSShapeGroup">
                    <path d="M27.6168111,16.8429143 C27.0558251,15.3294688 25.9448636,14.1271576 24.4881719,13.4582191 C23.7009197,13.0965257 22.8668729,12.9142899 22.0075018,12.9142899 C20.9339761,12.9142899 19.9088968,13.2176458 19.0137415,13.7399067 L13.7661278,7.11386029 C13.875132,6.93940292 13.9753277,6.75827839 14.0623108,6.56770872 C15.1127144,4.23753611 14.0898371,1.47844285 11.7825827,0.418364323 C11.1786557,0.140565968 10.5378435,0 9.87886388,0 C8.07919444,0 6.4342228,1.06674568 5.68770957,2.7190903 C4.63675547,5.04870731 5.66018327,7.80724498 7.96853872,8.87010149 C8.57246572,9.14789984 9.21382849,9.28846581 9.87225757,9.28846581 C10.8406328,9.28846581 11.7594606,8.97066449 12.5230402,8.42673531 L17.6187087,14.8599896 C17.1898489,15.3261353 16.8231986,15.8556189 16.5545419,16.4523298 C16.0227338,17.6279724 15.8873045,18.9164012 16.1394454,20.1592711 L8.53558048,22.9533669 C8.06102708,22.1577524 7.36571276,21.5238166 6.51019539,21.1310097 C5.90626838,20.8526558 5.26490561,20.7120898 4.60537548,20.7120898 C2.80625657,20.7120898 1.16128493,21.7799467 0.416973805,23.4306245 C-0.0928132559,24.5584858 -0.136855335,25.8202459 0.29420651,26.9819987 C0.724717829,28.1431958 1.57748258,29.0665975 2.69615137,29.5799689 C3.3006289,29.8577672 3.94199167,30 4.60317338,30 C6.40119124,30 8.04396078,28.9321431 8.78937296,27.2803541 C9.16648325,26.4414031 9.28649792,25.5324468 9.14776537,24.6451589 L16.7505292,21.851063 C17.3665678,22.9978147 18.3250335,23.9145492 19.5224275,24.4640344 C20.3107807,24.8257278 21.1448276,25.0085191 22.0058502,25.0085191 C24.3488888,25.0085191 26.4887833,23.6178606 27.457709,21.4671457 C28.1205423,19.998148 28.1783476,18.3563597 27.6168111,16.8429143 L27.6168111,16.8429143 Z M7.72912334,27.2438453 C7.24323132,28.3100821 6.17239328,29 5.00015679,29 C4.57170435,29 4.15380204,28.908558 3.75758611,28.7291911 C3.02845501,28.3962485 2.47281491,27.8007034 2.19206427,27.0509965 C1.91072752,26.3007034 1.93944731,25.4871043 2.27177636,24.7573271 C2.75766838,23.6910903 3.82967865,23 5.00250126,23 C5.43036758,23 5.84826989,23.0926143 6.24214135,23.2725674 C6.97244469,23.6043376 7.52808478,24.2010551 7.80766319,24.9501758 C8.08841383,25.6998828 8.06145239,26.5146542 7.72912334,27.2438453 L7.72912334,27.2438453 Z" id="Shape"></path>
                </g>
            </g>
        </g>
    </g>
</svg>