<?xml version="1.0" encoding="UTF-8" standalone="no"?>
<svg width="49px" height="44px" viewBox="0 0 49 44" version="1.1" xmlns="http://www.w3.org/2000/svg" xmlns:xlink="http://www.w3.org/1999/xlink" xmlns:sketch="http://www.bohemiancoding.com/sketch/ns">
    <!-- Generator: Sketch 3.0.4 (8053) - http://www.bohemiancoding.com/sketch -->
    <title>Shape 2</title>
    <desc>Created with Sketch.</desc>
    <defs></defs>
    <g id="Page-1" stroke="none" stroke-width="1" fill="none" fill-rule="evenodd" sketch:type="MSPage">
        <g id="Landscape-3" sketch:type="MSArtboardGroup" transform="translate(-505.000000, -698.000000)" fill="#5E5E5E">
            <g id="mins-left-chart-5-+-Group-2-+-Oval-81-+-Shape-2" sketch:type="MSLayerGroup" transform="translate(412.000000, 598.000000)">
                <path d="M127.167821,129.228772 L112.479369,129.228772 C111.604265,130.171981 110.557463,131.259887 109.582664,132.326357 C107.37275,134.743331 102.194129,136.731573 101.440875,136.924503 C100.687621,137.117432 98.6770978,137.020967 99.8845195,135.665104 C101.091941,134.30924 102.293824,130.825797 102.293824,129.228772 L98.8266408,129.228772 C95.6253115,129.228772 93,126.704615 93,123.612389 L93,105.611024 C93,102.524157 95.6253115,100 98.8266408,100 L127.167821,100 C130.374688,100 133,102.524157 133,105.611024 L133,123.612389 C133,126.704615 130.374688,129.228772 127.167821,129.228772 L127.167821,129.228772 Z M122.5,111 C121.122047,111 120,112.117705 120,113.502473 C120,114.882295 121.122047,116 122.5,116 C123.882874,116 125,114.882295 125,113.502473 C125,112.117705 123.882874,111 122.5,111 L122.5,111 Z M112.5,113 C111.122047,113 110,114.121542 110,115.5 C110,116.878458 111.122047,118 112.5,118 C113.882874,118 115,116.878458 115,115.5 C115,114.121542 113.882874,113 112.5,113 L112.5,113 Z M103.5,113 C102.122047,113 101,114.121542 101,115.5 C101,116.878458 102.122047,118 103.5,118 C104.882874,118 106,116.878458 106,115.5 C106,114.121542 104.882874,113 103.5,113 L103.5,113 Z M136.696229,109 L135.889839,109 C135.922311,109.228787 135.938547,109.463154 135.938547,109.703101 L135.938547,127.542885 C135.938547,130.533852 133.551851,132.983544 130.634777,132.983544 L113.911662,132.983544 C112.823848,134.20002 111,136.23678 111,136.23678 C111,136.23678 111.584497,137.721103 113.424581,137.721103 L128.101955,137.721103 C128.659392,139.551397 130.153108,141.085942 131.148918,141.878326 C132.23132,142.732091 134.120112,143.915085 135.689595,143.993208 C137.259078,144.06575 137.432263,143.541214 137.161662,143.184084 C136.891061,142.832534 136.10632,140.918537 135.787011,140.059192 C135.581355,139.506756 135.603003,138.418624 135.640887,137.721103 L136.696229,137.721103 C139.613303,137.721103 142,135.271411 142,132.274863 L142,114.44066 C142,111.444112 139.613303,109 136.696229,109 L136.696229,109 Z" id="Shape-2" sketch:type="MSShapeGroup"></path>
            </g>
        </g>
    </g>
</svg>